<svg xmlns="http://www.w3.org/2000/svg" xmlns:xlink="http://www.w3.org/1999/xlink" width="500" zoomAndPan="magnify" viewBox="0 0 375 374.999991" height="500" preserveAspectRatio="xMidYMid meet" version="1.0"><path fill="#ffffff" d="M 271.300781 98.292969 L 268.144531 95.167969 L 267.828125 94.851562 C 258 84.667969 258.105469 68.269531 268.144531 58.222656 C 278.183594 48.179688 294.574219 48.074219 304.753906 57.910156 L 305.070312 58.222656 L 308.230469 61.351562 L 316.832031 69.988281 C 326.976562 80.136719 326.976562 96.746094 316.832031 106.929688 C 306.6875 117.078125 290.046875 117.078125 279.902344 106.929688 Z M 97.121094 241.214844 L 90.554688 247.78125 L 58.367188 279.984375 C 48.222656 290.132812 48.222656 306.742188 58.367188 316.925781 C 68.546875 327.074219 85.152344 327.074219 95.296875 316.925781 L 127.484375 284.726562 L 134.050781 278.160156 L 152.511719 259.6875 C 162.660156 249.539062 162.660156 232.929688 152.511719 222.746094 L 134.050781 204.273438 L 130.75 201.007812 L 95.050781 165.292969 C 84.90625 155.144531 68.300781 155.144531 58.121094 165.292969 C 47.976562 175.441406 47.976562 192.089844 58.121094 202.238281 L 93.820312 237.949219 Z M 315.355469 316.679688 L 315.355469 316.714844 C 305.210938 326.863281 288.574219 326.863281 278.429688 316.714844 L 58.613281 96.78125 C 48.433594 86.632812 48.433594 69.988281 58.613281 59.839844 C 68.757812 49.691406 85.359375 49.691406 95.542969 59.839844 L 315.355469 279.773438 C 325.5 289.921875 325.5 306.53125 315.355469 316.679688 Z M 315.671875 211.402344 C 305.527344 221.550781 288.925781 221.550781 278.746094 211.402344 L 253.714844 186.363281 L 199.550781 132.179688 L 163.851562 96.464844 C 153.707031 86.316406 153.707031 69.671875 163.851562 59.523438 C 174.03125 49.375 190.636719 49.375 200.78125 59.523438 L 236.480469 95.238281 L 290.644531 149.421875 L 315.671875 174.460938 C 325.816406 184.609375 325.816406 201.253906 315.671875 211.402344 Z M 315.671875 211.402344 " fill-opacity="1" fill-rule="evenodd"/></svg>