<svg xmlns="http://www.w3.org/2000/svg" xmlns:xlink="http://www.w3.org/1999/xlink" width="500" zoomAndPan="magnify" viewBox="0 0 375 374.999991" height="500" preserveAspectRatio="xMidYMid meet" version="1.0"><defs><g/></defs><g fill="#ffffff" fill-opacity="1"><g transform="translate(64.82447, 278.469325)"><g><path d="M 22.09375 0 L 22.09375 -227.40625 L 63.671875 -227.40625 L 63.671875 -32.484375 L 164.375 -32.484375 L 164.375 0 Z M 22.09375 0 "/></g></g></g><g fill="#ffffff" fill-opacity="1"><g transform="translate(117.791335, 278.469325)"><g><path d="M 75.046875 0 L 75.046875 -193.9375 L 8.765625 -193.9375 L 8.765625 -227.40625 L 183.21875 -227.40625 L 183.21875 -193.9375 L 116.625 -193.9375 L 116.625 0 Z M 75.046875 0 "/></g></g></g><g fill="#ffffff" fill-opacity="1"><g transform="translate(310.173647, 96.519546)"><g><path d="M -22.09375 0 L -22.09375 227.40625 L -63.671875 227.40625 L -63.671875 32.484375 L -164.375 32.484375 L -164.375 0 Z M -22.09375 0 "/></g></g></g><g fill="#ffffff" fill-opacity="1"><g transform="translate(257.198015, 96.519546)"><g><path d="M -75.046875 0 L -75.046875 193.9375 L -8.765625 193.9375 L -8.765625 227.40625 L -183.21875 227.40625 L -183.21875 193.9375 L -116.625 193.9375 L -116.625 0 Z M -75.046875 0 "/></g></g></g></svg>