<svg xmlns="http://www.w3.org/2000/svg" xmlns:xlink="http://www.w3.org/1999/xlink" width="500" zoomAndPan="magnify" viewBox="0 0 375 374.999991" height="500" preserveAspectRatio="xMidYMid meet" version="1.0"><defs><g/></defs><g fill="#ffffff" fill-opacity="1"><g transform="translate(106.848285, 9.594543)"><g><path d="M 0 21.40625 L 220.28125 21.40625 L 220.28125 61.671875 L 31.46875 61.671875 L 31.46875 159.234375 L 0 159.234375 Z M 0 21.40625 "/></g></g></g><g fill="#ffffff" fill-opacity="1"><g transform="translate(268.139063, 365.396022)"><g><path d="M 0 -21.40625 L -220.28125 -21.40625 L -220.28125 -61.671875 L -31.46875 -61.671875 L -31.46875 -159.234375 L 0 -159.234375 Z M 0 -21.40625 "/></g></g></g><g fill="#ffffff" fill-opacity="1"><g transform="translate(106.851717, 60.901996)"><g><path d="M 0 72.6875 L 187.875 72.6875 L 187.875 8.5 L 220.28125 8.5 L 220.28125 177.484375 L 187.875 177.484375 L 187.875 112.96875 L 0 112.96875 Z M 0 72.6875 "/></g></g></g><g fill="#ffffff" fill-opacity="1"><g transform="translate(268.142548, 314.088555)"><g><path d="M 0 -72.6875 L -187.875 -72.6875 L -187.875 -8.5 L -220.28125 -8.5 L -220.28125 -177.484375 L -187.875 -177.484375 L -187.875 -112.96875 L 0 -112.96875 Z M 0 -72.6875 "/></g></g></g></svg>