<svg xmlns="http://www.w3.org/2000/svg" xmlns:xlink="http://www.w3.org/1999/xlink" width="500" zoomAndPan="magnify" viewBox="0 0 375 374.999991" height="500" preserveAspectRatio="xMidYMid meet" version="1.0"><defs><g/><clipPath id="70d732d843"><path d="M 94.285156 189 L 280.417969 189 L 280.417969 290.371094 L 94.285156 290.371094 Z M 94.285156 189 " clip-rule="nonzero"/></clipPath><clipPath id="9479e1583b"><path d="M 184 160.011719 L 191 160.011719 L 191 182 L 184 182 Z M 184 160.011719 " clip-rule="nonzero"/></clipPath></defs><g fill="#373534" fill-opacity="1"><g transform="translate(52.716943, 164.464846)"><g><path d="M 3.976562 -3.210938 L 17.070312 -13.78125 C 18.394531 -14.851562 18.449219 -16.246094 17.738281 -17.128906 C 17.078125 -17.945312 15.652344 -18.253906 14.324219 -17.183594 L 3.171875 -8.175781 L -10.171875 -24.703125 C -11.105469 -25.859375 -12.589844 -25.613281 -13.542969 -24.84375 C -14.5625 -24.019531 -15.082031 -22.648438 -14.148438 -21.492188 L 0.457031 -3.402344 C 1.417969 -2.210938 2.515625 -2.03125 3.976562 -3.210938 Z M 3.976562 -3.210938 "/></g></g></g><g fill="#373534" fill-opacity="1"><g transform="translate(77.573489, 145.456904)"><g><path d="M -11.886719 -22.621094 L 0.480469 -2.933594 C 1.292969 -1.636719 2.703125 -1.695312 3.8125 -2.394531 C 4.886719 -3.066406 5.601562 -4.394531 4.808594 -5.652344 L -7.554688 -25.339844 C -8.414062 -26.710938 -9.921875 -26.644531 -10.992188 -25.96875 C -12.105469 -25.273438 -12.746094 -23.992188 -11.886719 -22.621094 Z M -11.886719 -22.621094 "/></g></g></g><g fill="#373534" fill-opacity="1"><g transform="translate(90.806626, 136.958848)"><g><path d="M -3.164062 -24.578125 L 10.210938 -30.84375 C 11.636719 -31.511719 11.863281 -32.777344 11.417969 -33.726562 C 10.957031 -34.714844 9.839844 -35.351562 8.414062 -34.683594 L -6.941406 -27.488281 C -8.328125 -26.839844 -9.011719 -25.214844 -8.421875 -23.949219 L 1.3125 -3.171875 C 1.941406 -1.828125 3.441406 -1.613281 4.589844 -2.152344 C 5.699219 -2.667969 6.496094 -3.960938 5.84375 -5.34375 L 2.304688 -12.902344 L 14.96875 -18.835938 C 16.355469 -19.484375 16.601562 -20.710938 16.15625 -21.660156 C 15.710938 -22.609375 14.574219 -23.285156 13.1875 -22.636719 L 0.523438 -16.703125 Z M -3.164062 -24.578125 "/></g></g></g><g fill="#373534" fill-opacity="1"><g transform="translate(120.378244, 123.565584)"><g><path d="M 20.753906 -10.335938 L 6.0625 -6.230469 L 4.113281 -13.21875 L 18.042969 -17.109375 C 19.515625 -17.523438 19.949219 -18.734375 19.667969 -19.742188 C 19.375 -20.796875 18.324219 -21.636719 16.890625 -21.234375 L 2.960938 -17.34375 L 0.902344 -24.710938 L 15.589844 -28.8125 C 17.023438 -29.214844 17.515625 -30.53125 17.234375 -31.542969 C 16.941406 -32.59375 15.953125 -33.363281 14.4375 -32.9375 L -2.269531 -28.269531 C -3.953125 -27.800781 -4.730469 -26.355469 -4.355469 -25.011719 L 1.734375 -3.207031 C 2.125 -1.820312 3.535156 -0.988281 5.21875 -1.457031 L 21.929688 -6.125 C 23.488281 -6.5625 23.960938 -7.785156 23.679688 -8.792969 C 23.386719 -9.847656 22.226562 -10.746094 20.753906 -10.335938 Z M 20.753906 -10.335938 "/></g></g></g><g fill="#373534" fill-opacity="1"><g transform="translate(152.739543, 115.085557)"><g><path d="M 19.457031 -30.148438 L -1.699219 -27.820312 C -3.394531 -27.632812 -4.007812 -26.421875 -3.882812 -25.292969 C -3.761719 -24.207031 -2.902344 -23.160156 -1.207031 -23.34375 L 6.828125 -24.230469 L 9.128906 -3.335938 C 9.300781 -1.769531 10.6875 -1.175781 11.902344 -1.308594 C 13.03125 -1.433594 14.382812 -2.332031 14.210938 -3.894531 L 11.867188 -24.785156 L 19.949219 -25.671875 C 21.597656 -25.855469 22.386719 -27.085938 22.269531 -28.171875 C 22.144531 -29.300781 21.105469 -30.328125 19.457031 -30.148438 Z M 19.457031 -30.148438 "/></g></g></g><g fill="#373534" fill-opacity="1"><g transform="translate(184.470388, 112.446433)"><g><path d="M 2.226562 -25.457031 L 1.988281 -2.207031 C 1.972656 -0.679688 3.191406 0.03125 4.5 0.046875 C 5.769531 0.0585938 7.085938 -0.671875 7.101562 -2.15625 L 7.339844 -25.40625 C 7.355469 -27.023438 6.050781 -27.777344 4.785156 -27.792969 C 3.472656 -27.804688 2.242188 -27.074219 2.226562 -25.457031 Z M 2.226562 -25.457031 "/></g></g></g><g fill="#373534" fill-opacity="1"><g transform="translate(199.970206, 112.118821)"><g><path d="M 9.308594 -26.738281 C 8.054688 -26.929688 6.699219 -26.164062 6.46875 -24.652344 L 2.980469 -1.84375 C 2.746094 -0.332031 3.886719 0.59375 5.140625 0.785156 C 6.351562 0.972656 7.757812 0.433594 7.988281 -1.078125 L 10.210938 -15.589844 L 15.046875 -4.726562 C 15.390625 -3.789062 16.304688 -3.121094 17.167969 -2.988281 C 18.03125 -2.855469 19 -3.105469 19.605469 -3.898438 L 27.582031 -12.976562 L 25.355469 1.582031 C 25.125 3.09375 26.222656 4.011719 27.476562 4.203125 C 28.683594 4.386719 30.136719 3.859375 30.367188 2.347656 L 33.863281 -20.503906 C 34.101562 -22.0625 33.066406 -23.101562 31.816406 -23.292969 C 30.992188 -23.421875 30.027344 -23.171875 29.332031 -22.390625 L 18.179688 -9.597656 L 11.3125 -25.105469 C 10.917969 -26.003906 10.128906 -26.613281 9.308594 -26.738281 Z M 9.308594 -26.738281 "/></g></g></g><g fill="#373534" fill-opacity="1"><g transform="translate(239.646256, 119.011216)"><g><path d="M 22.933594 3.390625 L 8.539062 -1.644531 L 10.933594 -8.492188 L 24.585938 -3.714844 C 26.03125 -3.210938 27.078125 -3.953125 27.425781 -4.945312 C 27.785156 -5.976562 27.40625 -7.265625 26 -7.757812 L 12.347656 -12.535156 L 14.871094 -19.753906 L 29.269531 -14.71875 C 30.671875 -14.226562 31.832031 -15.023438 32.175781 -16.015625 C 32.539062 -17.046875 32.167969 -18.242188 30.683594 -18.761719 L 14.304688 -24.488281 C 12.65625 -25.066406 11.195312 -24.328125 10.734375 -23.007812 L 3.257812 -1.636719 C 2.78125 -0.277344 3.464844 1.210938 5.113281 1.789062 L 21.492188 7.515625 C 23.019531 8.050781 24.105469 7.320312 24.453125 6.332031 C 24.8125 5.300781 24.378906 3.898438 22.933594 3.390625 Z M 22.933594 3.390625 "/></g></g></g><g fill="#373534" fill-opacity="1"><g transform="translate(270.981859, 130.363936)"><g><path d="M 30.925781 -12.152344 L 24.058594 0.132812 L 22.78125 2.773438 L 19.503906 -19.488281 C 19.320312 -20.589844 18.886719 -21.335938 17.933594 -21.867188 C 16.710938 -22.550781 15.15625 -22.367188 14.304688 -20.84375 L 3.152344 -0.890625 C 2.363281 0.519531 3.128906 1.75 4.3125 2.410156 C 5.417969 3.027344 6.902344 3.058594 7.691406 1.644531 L 14.386719 -10.332031 L 15.429688 -12.554688 L 18.699219 9 C 18.832031 9.925781 19.492188 10.898438 20.371094 11.386719 C 21.628906 12.089844 23.351562 12.054688 24.207031 10.527344 L 35.464844 -9.613281 C 36.191406 -10.910156 35.441406 -12.082031 34.296875 -12.71875 C 33.152344 -13.359375 31.609375 -13.371094 30.925781 -12.152344 Z M 30.925781 -12.152344 "/></g></g></g><g fill="#373534" fill-opacity="1"><g transform="translate(301.77814, 148.318965)"><g><path d="M 35.089844 -7.484375 L 18.515625 -20.832031 C 17.1875 -21.902344 15.894531 -21.484375 15.183594 -20.597656 C 14.496094 -19.746094 14.363281 -18.398438 15.691406 -17.328125 L 21.988281 -12.257812 L 8.804688 4.117188 C 7.820312 5.339844 8.375 6.742188 9.328125 7.507812 C 10.210938 8.222656 11.800781 8.546875 12.789062 7.324219 L 25.9375 -9.078125 L 32.269531 -3.980469 C 33.5625 -2.9375 34.988281 -3.25 35.675781 -4.097656 C 36.386719 -4.984375 36.386719 -6.445312 35.089844 -7.484375 Z M 35.089844 -7.484375 "/></g></g></g><g clip-path="url(#70d732d843)"><path fill="#070606" d="M 218.167969 200.070312 C 222.234375 201.375 226.234375 202.945312 230.101562 204.746094 C 247.167969 212.710938 262.257812 224.378906 274.285156 238.890625 C 274.796875 239.5 274.796875 240.378906 274.285156 240.988281 C 262.257812 255.5 247.167969 267.152344 230.101562 275.132812 C 226.234375 276.933594 222.234375 278.503906 218.167969 279.808594 C 240.195312 262.789062 244.226562 231.121094 227.207031 209.109375 C 224.597656 205.722656 221.554688 202.679688 218.167969 200.070312 Z M 156.515625 200.070312 C 134.488281 217.109375 130.457031 248.757812 147.476562 270.769531 C 150.085938 274.15625 153.128906 277.199219 156.515625 279.808594 C 152.433594 278.503906 148.433594 276.933594 144.566406 275.132812 C 127.5 267.152344 112.429688 255.5 100.398438 240.988281 C 99.886719 240.378906 99.886719 239.5 100.398438 238.890625 C 112.429688 224.378906 127.5 212.730469 144.566406 204.746094 C 148.433594 202.945312 152.433594 201.375 156.515625 200.085938 Z M 186.589844 194.730469 C 211.261719 194.320312 231.554688 213.984375 231.984375 238.640625 C 231.984375 239.070312 231.984375 239.519531 231.984375 239.949219 C 232.296875 264.605469 212.582031 284.867188 187.929688 285.199219 C 163.257812 285.511719 143 265.777344 142.683594 241.121094 C 142.683594 240.726562 142.683594 240.328125 142.683594 239.949219 C 142.371094 215.339844 162 195.128906 186.589844 194.730469 Z M 191.300781 189.574219 C 174.363281 188.949219 157.507812 192.367188 142.15625 199.539062 C 124.324219 207.886719 108.542969 220.066406 95.984375 235.222656 C 93.722656 237.964844 93.722656 241.929688 95.984375 244.65625 C 108.542969 259.8125 124.324219 271.992188 142.15625 280.339844 C 170.792969 293.726562 203.90625 293.726562 232.5625 280.339844 C 250.375 271.992188 266.15625 259.8125 278.714844 244.65625 C 280.980469 241.929688 280.980469 237.964844 278.714844 235.222656 C 266.15625 220.066406 250.375 207.886719 232.5625 199.539062 C 219.605469 193.492188 205.578125 190.105469 191.300781 189.574219 " fill-opacity="1" fill-rule="nonzero"/></g><path fill="#070606" d="M 204.273438 239.949219 C 204.453125 230.59375 197.050781 222.859375 187.699219 222.660156 C 178.34375 222.464844 170.609375 229.882812 170.414062 239.238281 C 170.414062 239.46875 170.414062 239.699219 170.414062 239.949219 C 170.214844 249.285156 177.632812 257.035156 186.988281 257.21875 C 196.339844 257.417969 204.074219 249.996094 204.273438 240.640625 C 204.273438 240.410156 204.273438 240.179688 204.273438 239.949219 " fill-opacity="1" fill-rule="nonzero"/><path fill="#070606" d="M 127.546875 181.246094 L 139 190.796875 C 140.238281 191.789062 142.039062 191.589844 143.03125 190.351562 C 143.988281 189.164062 143.839844 187.410156 142.667969 186.386719 L 131.214844 176.832031 C 129.976562 175.84375 128.175781 176.039062 127.183594 177.28125 C 126.210938 178.484375 126.375 180.238281 127.546875 181.246094 " fill-opacity="1" fill-rule="nonzero"/><path fill="#070606" d="M 243.453125 176.832031 L 231.984375 186.386719 C 230.777344 187.410156 230.613281 189.226562 231.621094 190.433594 C 232.660156 191.65625 234.460938 191.824219 235.683594 190.796875 L 247.136719 181.246094 C 248.328125 180.203125 248.476562 178.386719 247.417969 177.195312 C 246.410156 176.023438 244.675781 175.875 243.453125 176.832031 " fill-opacity="1" fill-rule="nonzero"/><g clip-path="url(#9479e1583b)"><path fill="#070606" d="M 184.476562 163.332031 L 184.476562 178.238281 C 184.523438 179.824219 185.863281 181.0625 187.449219 181 C 188.953125 180.933594 190.144531 179.742188 190.210938 178.238281 L 190.210938 163.332031 C 190.144531 161.746094 188.820312 160.503906 187.21875 160.570312 C 185.730469 160.636719 184.523438 161.828125 184.476562 163.332031 " fill-opacity="1" fill-rule="nonzero"/></g></svg>